<svg xmlns="http://www.w3.org/2000/svg" width="256" height="256" viewBox="0 0 100 100"><rect width="100" height="100" rx="20" fill="#0a192f"></rect><path fill="#64ffda" d="M7.79 66.16Q7.97 64.45 8.51 59.45Q9.05 54.45 9.68 51.22L9.68 51.22Q8.51 47.70 8.51 37.27L8.51 37.27L8.60 27.37Q7.97 26.92 7.88 25.70Q7.79 24.49 7.79 21.97L7.79 21.97Q7.79 20.80 7.97 20.62L7.97 20.62L9.14 19.54L16.34 19.54L16.97 20.08Q17.06 20.17 17.60 23.77L17.60 23.77L17.96 25.66Q18.59 29.71 18.59 36.46L18.59 36.46Q18.59 41.05 17.69 50.05L17.69 50.05Q16.79 59.05 16.79 63.64L16.79 63.64Q16.79 65.34 16.88 66.52Q16.97 67.69 16.97 67.87L16.97 67.87L17.96 69.03Q17.42 69.13 17.42 69.84L17.42 69.84Q17.42 70.30 17.56 70.66Q17.69 71.02 17.69 71.28L17.69 71.28Q18.86 71.38 20.75 71.38Q22.64 71.38 24.53 71.47L24.53 71.47L30.29 71.64Q31.19 72.37 33.53 72.37L33.53 72.37Q35.96 72.37 39.38 71.64L39.38 71.64Q42.26 71.11 43.97 71.11L43.97 71.11Q43.97 72.00 44.33 73.63L44.33 73.63Q44.42 73.98 44.51 74.66Q44.60 75.34 44.60 75.88L44.60 75.88Q44.60 76.69 43.70 77.54Q42.80 78.39 42.44 78.39L42.44 78.39L39.11 77.86Q36.14 79.92 31.19 79.92L31.19 79.92Q29.84 79.92 27.50 79.75L27.50 79.75L24.53 79.66L19.31 79.75Q14.54 79.75 11.39 78.80Q8.24 77.86 8.24 75.16L8.24 75.16L8.24 66.16L7.79 66.16ZM13.46 26.11Q13.28 26.65 12.38 28.45L12.38 28.45Q11.21 30.25 11.21 31.60L11.21 31.60Q13.64 31.60 14.77 31.19Q15.89 30.79 15.89 28.90L15.89 28.90Q15.89 21.70 14.18 21.70L14.18 21.70Q13.82 21.70 10.85 22.33L10.85 22.33Q11.03 25.66 12.02 25.66L12.02 25.66Q12.29 25.66 12.47 25.57Q12.65 25.48 12.83 25.48L12.83 25.48Q13.19 25.48 13.46 26.11L13.46 26.11ZM12.83 32.32Q11.84 32.32 11.30 32.86L11.30 32.86L11.84 32.95Q12.38 32.95 12.65 32.86Q12.92 32.77 13.10 32.32L13.10 32.32L12.83 32.32ZM13.46 37.27Q12.11 37.27 11.66 37.63Q11.21 37.99 11.21 39.16L11.21 39.16Q11.21 40.42 11.30 40.69L11.30 40.69Q13.55 39.97 14.72 37.54Q15.89 35.11 15.89 32.59L15.89 32.59Q14.63 32.59 13.37 33.71Q12.11 34.84 11.84 35.02L11.84 35.02Q11.84 35.74 12.70 36.10Q13.55 36.46 13.55 37.00L13.55 37.00L13.46 37.27ZM11.30 43.30Q11.84 43.48 13.10 43.48L13.10 43.48Q15.08 43.48 15.62 42.44Q16.16 41.41 16.16 38.98L16.16 38.98L15.26 38.98L11.30 43.30ZM11.30 45.73Q12.02 45.73 12.79 45.55Q13.55 45.37 13.55 44.83L13.55 44.83L13.46 44.56L11.30 45.10L11.30 45.73ZM15.26 45.46Q14.81 45.46 13.78 46.54Q12.74 47.62 12.47 47.89L12.47 47.89L15.26 47.89L15.26 45.46ZM11.84 50.86Q12.47 50.86 12.92 50.27Q13.37 49.69 13.46 49.59L13.46 49.59L11.84 49.59L11.84 50.86ZM13.19 55.36Q13.19 55.98 12.79 56.66Q12.38 57.34 12.29 57.43L12.29 57.43Q11.84 58.06 11.53 58.78Q11.21 59.50 11.21 60.22L11.21 60.22Q13.91 60.22 14.63 58.64Q15.35 57.07 15.35 54.01L15.35 54.01L15.26 50.05Q14.90 50.32 13.91 50.99Q12.92 51.67 12.38 52.48Q11.84 53.29 11.84 54.28L11.84 54.28Q11.84 54.64 12.52 54.86Q13.19 55.09 13.19 55.36L13.19 55.36ZM10.22 67.33Q10.22 67.69 10.54 68.50Q10.85 69.31 10.85 69.48L10.85 69.48Q10.85 70.20 11.30 72.91L11.30 72.91Q13.01 72.00 14.09 70.66L14.09 70.66Q12.83 70.12 12.47 69.48L12.47 69.48Q13.01 69.48 13.60 69.22Q14.18 68.95 14.18 68.77L14.18 68.77Q14.18 68.41 13.46 67.87L13.46 67.87Q13.46 67.59 13.91 66.70Q14.36 65.80 14.36 65.08L14.36 65.08L11.84 65.08Q13.64 64.81 14.23 63.73Q14.81 62.65 14.81 60.58L14.81 60.58Q12.56 60.58 11.57 61.25Q10.58 61.93 10.40 63.14Q10.22 64.36 10.22 67.33L10.22 67.33ZM11.30 73.98Q14.72 73.98 14.72 72.91L14.72 72.91Q14.72 72.64 14.50 72.19Q14.27 71.73 14.09 71.64L14.09 71.64L11.30 73.98ZM11.30 75.61Q11.39 76.23 12.56 76.23L12.56 76.23Q14.18 76.23 14.90 75.88Q15.62 75.52 16.34 73.98L16.34 73.98L15.80 73.89Q14.36 73.89 13.06 74.25Q11.75 74.62 11.30 75.61L11.30 75.61ZM15.62 75.88Q16.79 75.88 18.10 76.10Q19.40 76.33 19.67 76.78L19.67 76.78Q20.48 76.78 21.43 75.70Q22.37 74.62 22.46 74.53L22.46 74.53L22.01 74.53Q20.66 74.53 19.67 75.16L19.67 75.16L19.67 74.17Q15.62 74.17 15.62 75.88L15.62 75.88ZM29.84 74.17Q22.82 74.17 22.82 76.95L22.82 76.95Q25.43 76.95 26.33 75.61L26.33 75.61Q26.42 75.97 26.92 76.37Q27.41 76.78 27.59 76.78L27.59 76.78Q28.31 76.78 29.08 75.83Q29.84 74.89 29.84 74.17L29.84 74.17ZM29.12 76.78L30.02 76.87Q30.29 76.87 31.15 76.50Q32.00 76.14 32.45 76.14L32.45 76.14Q32.54 76.23 32.72 76.46Q32.90 76.69 32.99 76.78L32.99 76.78Q34.88 76.78 38.44 76.10Q41.99 75.42 41.99 74.44L41.99 74.44Q40.10 74.44 36.50 74.80L36.50 74.80Q32.72 75.16 30.74 75.16L30.74 75.16L29.12 76.78ZM56.12 79.39Q55.94 79.20 55.76 79.20L55.76 79.20Q55.49 79.20 55.31 79.30Q55.13 79.39 54.95 79.39L54.95 79.39Q52.61 79.39 50.86 77.72Q49.10 76.06 48.29 73.89L48.29 73.89Q49.64 73.89 50.23 72.77Q50.81 71.64 51.35 69.67L51.35 69.67Q51.71 67.78 52.16 67.78L52.16 67.78L59.90 72.28Q60.08 72.28 60.49 72.19Q60.89 72.09 61.52 72.09L61.52 72.09Q62.60 72.09 62.69 72.64L62.69 72.64L64.85 72.55Q66.47 72.55 67.19 72.91Q67.91 73.27 68.27 73.27L68.27 73.27Q73.67 73.27 78.76 71.33Q83.84 69.40 83.84 64.72L83.84 64.72Q83.84 62.73 82.67 60.31Q81.50 57.88 79.88 57.25L79.88 57.25L55.49 46.63Q52.07 45.19 50.45 41.99Q48.83 38.80 48.83 34.66L48.83 34.66Q48.83 32.77 49.60 31.10Q50.36 29.44 51.31 28.04Q52.25 26.65 52.61 26.11L52.61 26.11Q55.40 22.42 60.49 20.89Q65.57 19.36 71.42 19.36L71.42 19.36Q72.14 19.36 73.63 19.67Q75.11 19.99 77.72 19.99L77.72 19.99Q79.97 20.35 82.99 20.93Q86 21.52 86.09 21.61L86.09 21.61L87.71 23.32L87.71 29.98Q87.71 30.43 86.90 31.64Q86.09 32.86 85.73 32.86L85.73 32.86Q84.74 32.41 81.05 30.61L81.05 30.61Q76.91 28.54 74.34 27.50Q71.78 26.47 69.08 26.47L69.08 26.47Q64.13 26.47 60.13 28.58Q56.12 30.70 56.12 35.29L56.12 35.29Q56.12 36.64 57.52 38.39Q58.91 40.15 60.80 41.45Q62.69 42.76 63.77 42.76L63.77 42.76L64.94 42.67Q67.28 43.39 70.07 45.28L70.07 45.28Q72.23 46.81 74.08 47.53Q75.92 48.25 78.80 48.25L78.80 48.25Q81.86 48.88 84.97 50.86Q88.07 52.84 90.14 55.67Q92.21 58.51 92.21 61.56L92.21 61.56Q92.21 62.92 91.85 64.13Q91.49 65.34 91.40 65.62L91.40 65.62Q90.86 66.78 90.59 68.31L90.59 68.31Q89.42 72.64 88.84 74.03Q88.25 75.42 86.72 76.33Q85.19 77.23 81.59 77.77L81.59 77.77Q81.50 77.86 81.32 78.03Q81.14 78.22 81.05 78.31L81.05 78.31Q77.99 79.48 75.38 80.06Q72.77 80.64 69.98 80.64L69.98 80.64Q66.74 80.64 62.60 80.24Q58.46 79.84 56.12 79.39L56.12 79.39ZM83.21 27.19Q83.21 27.91 83.57 28.27Q83.93 28.63 84.92 28.90L84.92 28.90L86.09 24.49Q86.09 23.77 79.93 22.69Q73.76 21.61 71.06 21.61L71.06 21.61Q70.88 21.70 70.66 22.01Q70.43 22.33 70.43 22.51L70.43 22.51Q70.43 23.41 71.78 23.41L71.78 23.41L72.23 23.41Q73.67 23.41 73.76 22.69L73.76 22.69Q73.94 23.50 74.57 24.04Q75.20 24.58 75.92 24.58L75.92 24.58Q76.55 24.58 76.78 24.44Q77 24.31 77.09 23.86L77.09 23.86L78.80 25.48L80.51 23.86L80.51 25.66Q80.78 25.57 81.55 25.25Q82.31 24.94 83.21 24.49L83.21 24.49L83.84 24.58Q83.84 25.03 83.53 25.93Q83.21 26.83 83.21 27.19L83.21 27.19ZM66.56 22.69Q66.74 22.87 67.10 23.05Q67.46 23.23 67.64 23.32L67.64 23.32Q68.18 23.32 68.90 23.00Q69.62 22.69 69.62 22.24L69.62 22.24Q69.17 22.24 68.27 22.37Q67.37 22.51 66.56 22.69L66.56 22.69ZM62.33 23.23Q61.16 23.23 59.45 23.90Q57.74 24.58 57.74 25.39L57.74 25.39Q57.74 25.57 58.46 25.57L58.46 25.57Q59.36 25.57 60.85 24.80Q62.33 24.04 62.33 23.23L62.33 23.23ZM82.40 25.48Q82.13 25.57 81.81 25.88Q81.50 26.20 81.50 26.47L81.50 26.47L81.59 26.65L82.67 25.48L82.40 25.48ZM56.57 26.65Q55.49 27.01 54.64 28.04Q53.78 29.08 53.78 30.16L53.78 30.16Q55.04 30.16 55.81 29.17Q56.57 28.18 56.57 26.65L56.57 26.65ZM54.32 30.88Q52.34 30.88 52.16 31.69L52.16 31.69L54.32 31.69L54.32 30.88ZM51.53 32.77Q51.53 33.40 51.85 33.98Q52.16 34.57 52.61 34.57L52.61 34.57Q53.24 34.57 53.60 33.98Q53.96 33.40 53.96 32.77L53.96 32.77L51.53 32.77ZM51.44 36.01Q51.44 37.81 52.43 37.81L52.43 37.81Q53.42 37.81 53.42 36.01L53.42 36.01L51.44 36.01ZM52.16 38.80L52.61 38.89Q53.15 38.89 53.56 38.66Q53.96 38.44 53.96 37.99L53.96 37.99L53.87 37.81L52.16 38.80ZM52.61 39.97L52.61 40.51L53.87 40.51L53.87 39.97L52.61 39.97ZM55.22 40.42Q55.04 40.42 54.73 40.82Q54.41 41.23 54.32 41.68L54.32 41.68L54.95 41.77Q55.85 41.77 56.12 41.14L56.12 41.14Q55.94 40.78 55.67 40.60Q55.40 40.42 55.22 40.42L55.22 40.42ZM55.40 43.03L55.31 43.12Q55.31 43.30 55.85 43.52Q56.39 43.75 56.57 43.93L56.57 43.93Q57.92 43.93 57.92 42.13L57.92 42.13Q57.11 42.13 56.26 42.40Q55.40 42.67 55.40 43.03L55.40 43.03ZM59.09 43.21Q58.64 43.21 58.51 43.66Q58.37 44.11 58.28 44.29L58.28 44.29L60.71 44.29Q60.71 43.84 60.17 43.52Q59.63 43.21 59.09 43.21L59.09 43.21ZM60.98 45.55Q61.25 45.82 62.11 46.22Q62.96 46.63 63.32 46.63L63.32 46.63Q63.50 46.63 63.95 46.22Q64.40 45.82 64.40 45.55L64.40 45.55L63.77 45.01L60.98 45.55ZM64.85 46.00Q64.85 47.08 65.62 47.26Q66.38 47.44 67.91 47.44L67.91 47.44Q67.91 46.00 64.85 46.00L64.85 46.00ZM70.43 48.88Q71.60 50.05 72.77 50.05L72.77 50.05L73.31 49.95Q70.97 48.88 70.43 48.88L70.43 48.88ZM75.92 51.04L76.64 51.67L77.09 51.04L75.92 51.04ZM77.72 52.20Q78.44 53.11 79.52 53.87Q80.60 54.64 81.59 54.64L81.59 54.64L81.59 53.83L81.05 53.83Q81.23 53.65 81.41 53.38Q81.59 53.11 81.59 52.93L81.59 52.93Q81.59 51.58 79.61 51.58L79.61 51.58L79.16 51.58Q77.81 51.58 77.72 52.20L77.72 52.20ZM84.11 54.37Q82.49 54.37 82.49 55.45L82.49 55.45L86.36 55.45Q86.36 54.37 84.11 54.37L84.11 54.37ZM87.08 59.41Q85.82 59.59 85.82 60.84L85.82 60.84Q86.63 60.84 87.44 60.35Q88.25 59.86 88.79 59.23Q89.33 58.59 89.33 58.42L89.33 58.42Q89.33 57.52 88.61 57.07Q87.89 56.62 87.08 56.62L87.08 56.62Q86.54 56.70 85.46 57.07Q84.38 57.43 84.38 57.70L84.38 57.70L84.38 58.33L87.08 59.41ZM86.54 62.47Q86.54 63.37 87.80 63.37L87.80 63.37Q89.51 63.37 89.83 62.60Q90.14 61.84 90.14 59.77L90.14 59.77Q89.24 59.77 87.89 60.71Q86.54 61.66 86.54 62.47L86.54 62.47ZM87.08 67.78Q85.82 67.95 85.82 69.13L85.82 69.13Q87.44 69.13 88.21 67.87Q88.97 66.61 88.97 64.81L88.97 64.81Q88.34 64.81 87.44 65.30Q86.54 65.80 86.54 66.34L86.54 66.34Q86.54 66.88 87.08 67.78L87.08 67.78ZM70.43 75.52Q70.43 76.50 71.33 77.18Q72.23 77.86 73.22 77.86L73.22 77.86L73.49 77.86Q74.75 77.86 74.93 77.14L74.93 77.14Q79.97 76.42 83.34 75.16Q86.72 73.89 87.08 70.48L87.08 70.48Q86.45 69.94 85.37 69.94L85.37 69.94Q85.01 69.94 84.29 71.47L84.29 71.47Q83.66 72.91 82.99 73.72Q82.31 74.53 81.32 74.53L81.32 74.53Q81.14 74.53 80.69 74.21Q80.24 73.89 79.88 73.89L79.88 73.89Q78.62 73.89 76.28 74.25L76.28 74.25Q75.65 74.34 74.93 74.44Q74.21 74.53 73.49 74.53L73.49 74.53Q71.87 74.53 71.60 74.44L71.60 74.44Q71.33 74.62 70.93 74.93Q70.52 75.25 70.43 75.52L70.43 75.52ZM53.15 75.16Q53.15 76.06 53.60 76.37Q54.05 76.69 54.95 76.69L54.95 76.69Q55.58 76.69 56.12 76.19Q56.66 75.70 56.66 74.62L56.66 74.62L56.57 74.44L54.32 75.52L53.87 75.34L53.87 74.98Q54.05 74.89 55.18 74.39Q56.30 73.89 56.57 73.27L56.57 73.27Q56.48 73.09 55.99 72.86Q55.49 72.64 55.04 72.64L55.04 72.64Q54.14 72.64 53.65 73.53Q53.15 74.44 53.15 75.16L53.15 75.16ZM59.45 73.89Q58.19 73.89 57.61 74.66Q57.02 75.42 57.02 76.59L57.02 76.59L58.28 76.59L57.74 76.14Q58.37 75.70 58.91 74.98Q59.45 74.25 59.45 73.89L59.45 73.89ZM59.45 76.59Q59.72 76.69 60.31 76.95Q60.89 77.23 61.70 77.23L61.70 77.23Q62.69 77.23 63.32 76.33Q63.95 75.42 63.95 74.34L63.95 74.34Q59.45 74.34 59.45 76.59L59.45 76.59ZM67.64 74.98Q65.75 74.98 65.21 75.56Q64.67 76.14 64.67 77.77L64.67 77.77L69.35 77.77Q69.44 77.67 69.62 77.50Q69.80 77.31 69.89 77.14L69.89 77.14Q69.89 75.88 69.35 75.42Q68.81 74.98 67.64 74.98L67.64 74.98ZM73.31 76.14L73.58 76.06Q73.76 76.06 74.30 76.59L74.30 76.59L73.31 76.59L73.31 76.14Z"></path></svg>